<svg xmlns="http://www.w3.org/2000/svg" width="264" height="24"><g fill="none" fill-rule="evenodd"><path fill="#1F9DD8" fill-rule="nonzero" d="M8.591 15.741a.954.954 0 0 1 .617 1.203L8.74 18.38l-.47 1.44a.963.963 0 0 1-1.212.613L.664 18.368a.954.954 0 0 1-.617-1.203l.94-2.874a.962.962 0 0 1 1.211-.613l6.393 2.063z"/><path fill="#FFC807" fill-rule="nonzero" d="M24.536 7.816c0 .527-.43.955-.961.955h-3.043a.958.958 0 0 1-.96-.955V1.138c0-.527.43-.955.96-.955h3.043c.53 0 .96.428.96.955v6.678h.001z"/><path fill="#78B942" fill-rule="nonzero" d="M15.267 9.205a.95.95 0 0 1-.212 1.334l-1.228.887-1.233.89a.965.965 0 0 1-1.343-.212L7.3 6.702a.95.95 0 0 1 .213-1.334L9.974 3.59a.965.965 0 0 1 1.343.211l3.95 5.403v.001z"/><path fill="#EC1C66" fill-rule="nonzero" d="M41.909 13.678a.962.962 0 0 1 1.21.613l.47 1.434.47 1.44a.954.954 0 0 1-.617 1.203l-6.392 2.064a.962.962 0 0 1-1.211-.613l-.94-2.874a.953.953 0 0 1 .616-1.204l6.394-2.063z"/><path fill="#EA7723" fill-rule="nonzero" d="M32.79 3.803a.965.965 0 0 1 1.343-.211l1.228.886 1.233.89a.95.95 0 0 1 .213 1.334l-3.95 5.402a.965.965 0 0 1-1.343.211l-2.462-1.776a.95.95 0 0 1-.213-1.334l3.952-5.402h-.001z"/><path fill="#FFF" fill-rule="nonzero" d="M26.442 16.779a.097.097 0 0 0-.128.011l-4.35 4.87-7.877-7.018a.097.097 0 0 0-.13.005.095.095 0 0 0-.005.13l8.022 9.19c.018.02.044.033.072.033h.002a.097.097 0 0 0 .073-.036l4.346-7.06a.095.095 0 0 0-.025-.125M53.794 3.33h-1.901v4.832h-2.269v1.686h2.269v11.566h1.901V9.848h2.638V8.162h-2.638z"/><path fill="#FFF" d="M57.88 21.414h1.901V8.161H57.88zm.944-18.611c-.401 0-.752.15-1.042.442-.29.293-.437.652-.437 1.065 0 .406.147.76.437 1.053.29.294.64.443 1.042.443.41 0 .765-.149 1.055-.443.29-.292.436-.647.436-1.053a1.47 1.47 0 0 0-.436-1.065 1.435 1.435 0 0 0-1.055-.442zm21.098 5.725c-.7-.465-1.518-.701-2.43-.701a5.02 5.02 0 0 0-2.743.814c-.78.498-1.447 1.218-1.986 2.141-.247-.659-.537-1.182-.862-1.557a3.972 3.972 0 0 0-1.422-1.018 4.528 4.528 0 0 0-1.832-.38c-.945 0-1.858.263-2.715.783-.545.342-1.083.863-1.602 1.553V8.162h-1.901v13.252h1.9V15.78c0-1.603.16-2.807.473-3.578.31-.764.796-1.38 1.443-1.831.646-.45 1.348-.678 2.088-.678.638 0 1.194.163 1.655.486.46.323.786.758.971 1.293.19.547.285 1.61.285 3.16v6.782h1.9v-5.215c0-1.842.153-3.172.454-3.951a4.024 4.024 0 0 1 1.421-1.86 3.606 3.606 0 0 1 2.14-.695c.635 0 1.189.154 1.645.458.454.304.78.709.967 1.205.191.507.288 1.46.288 2.834v7.224h1.937V14.19c0-1.636-.17-2.882-.507-3.705-.34-.833-.867-1.491-1.567-1.957zm15.681 8.387l.057-.098 1.605.85-.053.105c-.464.918-1.009 1.67-1.619 2.235-.601.56-1.304 1-2.07 1.297-.765.295-1.64.445-2.6.445-2.135 0-3.83-.716-5.037-2.129-1.202-1.407-1.812-3.021-1.812-4.797a7.134 7.134 0 0 1 1.535-4.487c1.294-1.665 3.049-2.51 5.219-2.51 2.232 0 4.039.865 5.372 2.57.948 1.204 1.437 2.726 1.453 4.522l.001.121H86.026c.053 1.419.525 2.6 1.402 3.514.9.938 2.028 1.413 3.352 1.413a5.4 5.4 0 0 0 1.88-.338 4.959 4.959 0 0 0 1.551-.895c.424-.371.892-.983 1.392-1.818zm-9.374-3.563h9.322c-.216-.803-.521-1.458-.91-1.946-.41-.517-.962-.94-1.64-1.258a5.028 5.028 0 0 0-2.15-.479c-1.232 0-2.306.404-3.192 1.201-.617.555-1.098 1.389-1.43 2.482zm24.966-3.037V8.16h1.878v13.254h-1.878v-2.032c-.652.742-1.383 1.315-2.175 1.709a6.454 6.454 0 0 1-2.898.658c-1.854 0-3.459-.687-4.771-2.04-1.312-1.352-1.977-3.02-1.977-4.957 0-1.898.671-3.544 1.995-4.892 1.324-1.349 2.939-2.033 4.801-2.033 1.076 0 2.063.234 2.936.695.779.412 1.48 1.014 2.089 1.793zm-1.337.847c-.956-.983-2.151-1.481-3.551-1.481a4.895 4.895 0 0 0-2.504.67 4.929 4.929 0 0 0-1.825 1.885 5.208 5.208 0 0 0-.679 2.569 5.23 5.23 0 0 0 .685 2.57 5.026 5.026 0 0 0 1.837 1.909 4.8 4.8 0 0 0 2.474.682c.887 0 1.759-.234 2.528-.677a4.733 4.733 0 0 0 1.836-1.83c.427-.767.643-1.643.643-2.605 0-1.466-.486-2.708-1.444-3.692zm15.426-2.574c-.765-.505-1.652-.761-2.637-.761a5.54 5.54 0 0 0-2.695.678c-.733.402-1.416.993-2.034 1.76V8.162h-1.9v13.252h1.9v-4.892c0-1.698.08-2.88.234-3.51a4.612 4.612 0 0 1 1.536-2.426c.77-.648 1.654-.977 2.627-.977.848 0 1.542.21 2.065.626.522.415.88 1.046 1.067 1.879.12.49.182 1.49.182 2.972v6.328h1.9v-6.818c0-1.778-.182-3.11-.544-3.958a4.546 4.546 0 0 0-1.701-2.05zm16.275-5.45h1.877v18.276h-1.877v-2.033c-.652.743-1.383 1.316-2.175 1.71a6.452 6.452 0 0 1-2.898.658c-1.854 0-3.46-.687-4.772-2.04-1.311-1.352-1.976-3.02-1.976-4.957 0-1.898.671-3.544 1.995-4.892 1.323-1.349 2.939-2.033 4.801-2.033 1.075 0 2.063.234 2.935.695.78.413 1.48 1.014 2.09 1.793V3.138zm.107 11.716c0-1.466-.486-2.708-1.444-3.692-.957-.983-2.152-1.481-3.552-1.481a4.895 4.895 0 0 0-2.503.67 4.93 4.93 0 0 0-1.825 1.885 5.208 5.208 0 0 0-.679 2.569 5.23 5.23 0 0 0 .685 2.57 5.023 5.023 0 0 0 1.837 1.909 4.802 4.802 0 0 0 2.473.682c.888 0 1.76-.234 2.529-.677a4.733 4.733 0 0 0 1.835-1.83c.427-.767.644-1.643.644-2.605zm16.001-4.539V3.138h1.878v18.276h-1.878v-2.032c-.652.742-1.383 1.315-2.175 1.709a6.454 6.454 0 0 1-2.898.658c-1.854 0-3.459-.687-4.772-2.04-1.311-1.352-1.976-3.02-1.976-4.957 0-1.898.671-3.544 1.995-4.892 1.323-1.349 2.939-2.033 4.801-2.033 1.076 0 2.063.234 2.936.695.779.412 1.48 1.014 2.089 1.793zm-1.336.847c-.957-.983-2.152-1.481-3.552-1.481a4.895 4.895 0 0 0-2.504.67 4.93 4.93 0 0 0-1.825 1.885 5.208 5.208 0 0 0-.679 2.569 5.23 5.23 0 0 0 .685 2.57 5.026 5.026 0 0 0 1.837 1.909 4.8 4.8 0 0 0 2.474.682c.887 0 1.759-.234 2.528-.677a4.732 4.732 0 0 0 1.835-1.83c.428-.767.644-1.643.644-2.605 0-1.466-.486-2.708-1.443-3.692zm17.421-.847V8.16h1.877v13.254h-1.877v-2.032c-.653.742-1.383 1.315-2.175 1.709a6.454 6.454 0 0 1-2.898.658c-1.854 0-3.46-.687-4.772-2.04-1.311-1.352-1.976-3.02-1.976-4.957 0-1.898.671-3.544 1.995-4.892 1.323-1.349 2.939-2.033 4.8-2.033 1.076 0 2.064.234 2.936.695.78.412 1.48 1.014 2.09 1.793zm-1.337.847c-.957-.983-2.152-1.481-3.552-1.481a4.895 4.895 0 0 0-4.329 2.555 5.217 5.217 0 0 0-.678 2.569c.002.901.238 1.787.684 2.57a5.026 5.026 0 0 0 1.838 1.909 4.802 4.802 0 0 0 2.473.682c.888 0 1.76-.234 2.529-.677a4.733 4.733 0 0 0 1.835-1.83c.427-.767.644-1.643.644-2.605 0-1.466-.486-2.708-1.444-3.692zm9.51-7.832h-1.901v4.832h-2.27v1.686h2.27v11.566h1.901V9.848h2.637V8.162h-2.637zm21.536 15.213c-.435 0-.81.157-1.117.466-.303.3-.47.71-.463 1.137 0 .437.155.817.462 1.13.307.314.683.473 1.118.473.435 0 .811-.16 1.119-.473.306-.313.461-.693.461-1.13a1.56 1.56 0 0 0-.462-1.137 1.524 1.524 0 0 0-1.118-.466zm25.648-10.716h-.001c2.018 0 3.713.746 5.04 2.216 1.205 1.34 1.816 2.948 1.816 4.781 0 1.84-.646 3.471-1.919 4.847-1.275 1.378-2.936 2.078-4.936 2.078-2.009 0-3.674-.699-4.949-2.078-1.273-1.376-1.918-3.007-1.918-4.847 0-1.825.611-3.429 1.815-4.769 1.327-1.478 3.026-2.228 5.052-2.228zm-.007 1.877h.001c-1.343 0-2.514.507-3.48 1.507-.967 1.001-1.457 2.228-1.457 3.648-.004.9.225 1.787.665 2.573a4.734 4.734 0 0 0 1.792 1.838c.755.432 1.61.656 2.48.649.896 0 1.731-.219 2.481-.649a4.737 4.737 0 0 0 1.79-1.838 5.223 5.223 0 0 0 .665-2.573c0-1.42-.493-2.647-1.463-3.647-.97-1.001-2.138-1.508-3.474-1.508zm-31.943 7.211l.058-.098 1.605.85-.053.105c-.465.918-1.01 1.67-1.62 2.235-.601.56-1.304 1-2.07 1.297-.764.295-1.639.445-2.6.445-2.135 0-3.83-.716-5.037-2.129-1.202-1.407-1.812-3.021-1.812-4.797a7.133 7.133 0 0 1 1.535-4.487c1.294-1.665 3.05-2.51 5.219-2.51 2.232 0 4.039.865 5.373 2.57.948 1.204 1.436 2.726 1.453 4.522v.121h-11.628c.054 1.419.525 2.6 1.402 3.514.9.938 2.028 1.413 3.353 1.413a5.41 5.41 0 0 0 1.88-.338 4.965 4.965 0 0 0 1.55-.895c.425-.371.892-.983 1.392-1.818zm-9.374-3.563h9.322c-.215-.803-.521-1.458-.909-1.946-.411-.517-.962-.94-1.641-1.258a5.025 5.025 0 0 0-2.15-.479c-1.232 0-2.306.404-3.192 1.201-.617.555-1.098 1.389-1.43 2.482zm31.157 4.375c-1.173 1.486-2.707 2.24-4.559 2.24-1.01 0-1.936-.229-2.749-.679a4.949 4.949 0 0 1-1.924-1.902 5.206 5.206 0 0 1-.702-2.616c0-1.417.513-2.639 1.525-3.63 1.012-.992 2.304-1.495 3.838-1.495 1.922 0 3.459.752 4.57 2.236l.065.088 1.51-.945-.06-.101a5.728 5.728 0 0 0-1.444-1.649c-.563-.428-1.256-.78-2.06-1.047a8.003 8.003 0 0 0-2.514-.4c-1.376 0-2.639.31-3.753.923-1.1.6-2.013 1.49-2.64 2.574a7 7 0 0 0-.962 3.571c0 1.9.692 3.534 2.056 4.859 1.363 1.324 3.102 1.995 5.168 1.995 1.342 0 2.557-.265 3.61-.787a6.386 6.386 0 0 0 2.536-2.221l.066-.1-1.51-1-.067.086zm38.35-7.243c-.34-.832-.867-1.49-1.568-1.956-.7-.465-1.517-.701-2.43-.701a5.02 5.02 0 0 0-2.742.814c-.78.498-1.447 1.218-1.986 2.141-.247-.659-.537-1.182-.863-1.557a3.978 3.978 0 0 0-1.422-1.018 4.529 4.529 0 0 0-1.83-.38c-.946 0-1.86.263-2.716.783-.546.342-1.084.863-1.603 1.553V8.16h-1.9v13.253h1.9V15.78c0-1.603.16-2.807.473-3.578a4.04 4.04 0 0 1 1.442-1.831c.646-.45 1.35-.679 2.089-.679.637 0 1.194.164 1.655.488.46.322.786.757.97 1.292.19.547.286 1.61.286 3.16v6.782h1.9v-5.215c0-1.842.153-3.171.454-3.951a4.027 4.027 0 0 1 1.42-1.86 3.607 3.607 0 0 1 2.14-.696c.636 0 1.19.155 1.645.46.455.303.78.708.967 1.204.192.506.289 1.46.289 2.834v7.224h1.936V14.19c0-1.635-.17-2.882-.506-3.706z"/></g></svg>